<svg width="48" height="48" viewBox="0 0 48 48" fill="none" xmlns="http://www.w3.org/2000/svg">
  <!-- Trophy Base -->
  <rect x="18" y="42" width="12" height="4" fill="white" rx="1"/>
  
  <!-- Trophy Stem -->
  <rect x="22" y="38" width="4" height="4" fill="white"/>
  
  <!-- Trophy Cup Body -->
  <path d="M16 28 L20 38 L28 38 L32 28 Q32 24 28 24 L20 24 Q16 24 16 28 Z" fill="white"/>
  
  <!-- Trophy Cup Top -->
  <ellipse cx="24" cy="24" rx="8" ry="4" fill="white"/>
  
  <!-- Game Controller Top -->
  <rect x="18" y="16" width="12" height="8" fill="white" rx="2"/>
  
  <!-- D-Pad -->
  <rect x="19" y="17" width="2" height="2" fill="black"/>
  <rect x="21" y="17" width="2" height="2" fill="black"/>
  <rect x="23" y="17" width="2" height="2" fill="black"/>
  <rect x="25" y="17" width="2" height="2" fill="black"/>
  <rect x="27" y="17" width="2" height="2" fill="black"/>
  
  <!-- Action Buttons -->
  <circle cx="30" cy="19" r="1" fill="black"/>
  <circle cx="32" cy="21" r="1" fill="black"/>
  <circle cx="30" cy="23" r="1" fill="black"/>
  <circle cx="28" cy="21" r="1" fill="black"/>
  
  <!-- Controller Grips -->
  <rect x="16" y="20" width="2" height="4" fill="white" rx="1"/>
  <rect x="30" y="20" width="2" height="4" fill="white" rx="1"/>
</svg>
